<?xml version="1.0" encoding="UTF-8" standalone="no"?>
<!-- Created with Inkscape (http://www.inkscape.org/) -->

<svg
   width="59.323803mm"
   height="36.289928mm"
   viewBox="0 0 59.323803 36.289928"
   version="1.1"
   id="svg1547"
   inkscape:version="1.1.2 (1:1.1+202202050950+0a00cf5339)"
   sodipodi:docname="logo-nobg.svg"
   xmlns:inkscape="http://www.inkscape.org/namespaces/inkscape"
   xmlns:sodipodi="http://sodipodi.sourceforge.net/DTD/sodipodi-0.dtd"
   xmlns="http://www.w3.org/2000/svg"
   xmlns:svg="http://www.w3.org/2000/svg">
  <sodipodi:namedview
     id="namedview1549"
     pagecolor="#ffffff"
     bordercolor="#666666"
     borderopacity="1.0"
     inkscape:pageshadow="2"
     inkscape:pageopacity="0.0"
     inkscape:pagecheckerboard="0"
     inkscape:document-units="mm"
     showgrid="false"
     inkscape:zoom="2.5620931"
     inkscape:cx="97.576468"
     inkscape:cy="98.161927"
     inkscape:window-width="1848"
     inkscape:window-height="1009"
     inkscape:window-x="1992"
     inkscape:window-y="34"
     inkscape:window-maximized="1"
     inkscape:current-layer="g916" />
  <defs
     id="defs1544">
    <clipPath
       clipPathUnits="userSpaceOnUse"
       id="clipPath922">
      <path
         d="M 0,1750 H 2500 V 0 H 0 Z"
         id="path920" />
    </clipPath>
  </defs>
  <g
     inkscape:groupmode="layer"
     id="layer2"
     inkscape:label="bg"
     style="display:none"
     transform="translate(-75.602644,-42.631005)">
    <ellipse
       style="fill:#1f2833;fill-opacity:1;stroke-width:0.958383"
       id="path1976"
       cx="105.96147"
       cy="61.090916"
       rx="38.888126"
       ry="36.807838" />
  </g>
  <g
     inkscape:label="Layer 1"
     inkscape:groupmode="layer"
     id="layer1"
     style="display:inline"
     transform="translate(-75.602644,-42.631005)">
    <g
       id="g904"
       transform="matrix(0.08398397,0,0,-0.08398397,102.52586,70.526362)">
      <path
         d="M 0,0 H 0.21 V 113.34 L 0,113.79 Z"
         style="fill:#fc6671;fill-opacity:1;fill-rule:nonzero;stroke:none"
         id="path906" />
    </g>
    <g
       id="g908"
       transform="matrix(0.08398397,0,0,-0.08398397,102.52586,70.526362)">
      <path
         d="M 0,0 0.21,7.77 V 113.34 L 0,113.79 Z"
         style="fill:#fc6671;fill-opacity:1;fill-rule:nonzero;stroke:none"
         id="path910" />
    </g>
    <g
       id="g912"
       transform="matrix(0.08398397,0,0,-0.08398397,131.92776,46.916822)" />
    <g
       id="g916"
       transform="matrix(0.08020281,0,0,-0.08020281,52.854648,140.58751)"
       style="display:inline">
      <g
         id="g918"
         clip-path="url(#clipPath922)">
        <g
           id="g924"
           transform="translate(707.8301,1146.8999)">
          <path
             d="M 0,0 C -15.69,-5.87 -49.51,-0.46 -55.77,0 Z"
             style="fill:#fc6671;fill-opacity:1;fill-rule:nonzero;stroke:none"
             id="path926" />
        </g>
        <g
           id="g928"
           transform="translate(652.0601,1146.8999)">
          <path
             d="M 0,0 H -0.98 C -0.88,0.04 -0.54,0.04 0,0"
             style="fill:#fc6671;fill-opacity:1;fill-rule:nonzero;stroke:none"
             id="path930" />
        </g>
        <g
           id="g932"
           transform="translate(969.4199,1146.8999)">
          <path
             id="path934"
             style="fill:#fc6671;fill-opacity:1;fill-rule:nonzero;stroke:none"
             d="m 0,0 -68.46,-146.53 -26.52,-56.76 -18.34,-39.27 h -0.01 l -18.01,-38.56 h -55.26 l -0.64,1.37 -10.34,22.06 -52.3,111.59 v -135.02 h -68.46 V 0 h 0.98 c 6.26,-0.46 40.08,-5.87 55.77,0 h 30.26 L -159.18,-168.54 -80.48,0 Z M 2.3932782e-6,-1.0471764e-4 V -281.1201 H -68.459998 v 134.59 z" />
        </g>
        <g
           id="g936"
           transform="translate(619.54,873.5498)">
          <path
             d="m 0,0 v 105.57 l -0.21,0.45 V -7.77 h -68.46 l -114.54,173.4 V -7.77 h -68.47 v 281.12 h 68.47 l 35.16,-53.47 4.05,-6.15 1.98,-3.02 0.2,-0.31 73.15,-111.24 v 156.56 l 0.21,17.63 37.36,0.01 8.94,0.01 29.55,0.01 z"
             style="fill:#fc6671;fill-opacity:1;fill-rule:nonzero;stroke:none"
             id="path938" />
        </g>
        <g
           id="g940"
           transform="translate(550.8701,1129.1401)">
          <path
             d="m 0,0 v -4.12 c -18.71,-9.41 -36.66,-19.2 -53.74,-29.27 -6.6,-3.89 -13.08,-7.83 -19.41,-11.8 l -0.2,0.31 -1.98,3.02 c 6.37,3.94 12.86,7.84 19.47,11.7 C -38.06,-19.77 -19.41,-9.68 0,0"
             style="fill:#66fcf1;fill-opacity:1;fill-rule:nonzero;stroke:none"
             id="path942" />
        </g>
        <g
           id="g944"
           transform="translate(969.4199,1033.1201)">
          <path
             d="m 0,0 c -13.5,-15.09 -29.32,-30.37 -47.17,-45.56 -6.81,-5.79 -13.91,-11.57 -21.29,-17.32 -6.97,-5.44 -14.19,-10.85 -21.65,-16.22 0,0 -0.01,0 -0.01,-0.01 -10.14,-7.29 -20.71,-14.53 -31.69,-21.65 -15.52,-10.07 -31.83,-19.95 -48.9,-29.52 h -0.02 c -8.65,-4.86 -17.49,-9.65 -26.51,-14.36 -17.39,-9.07 -35.44,-17.83 -54.06,-26.19 -0.26,-0.11 -0.52,-0.231 -0.78,-0.34 -56.9,-25.47 -113.04,-44.46 -165.09,-56.81 -7.4,-1.75 -14.71,-3.371 -21.93,-4.85 -18.01,-3.71 -35.44,-6.58 -52.15,-8.61 -6.09,-0.74 -12.09,-1.371 -17.99,-1.88 -87.17,-7.63 -151.87,9.299 -170.93,51.9 -19.39,43.34 12.51,104.23 78.61,165.23 v -8.23 c -50.67,-50.67 -74.04,-99.75 -58.14,-135.29 16.54,-36.97 72.38,-52 148.44,-46.18 4.67,0.36 9.41,0.8 14.23,1.31 16.59,1.769 34.03,4.47 52.15,8.09 7.85,1.56 15.82,3.3 23.91,5.21 30.56,7.21 62.7,16.88 95.65,28.96 1.84,0.66 3.67,1.35 5.51,2.04 0.07,0.03 0.16,0.06 0.23,0.08 2.52,0.94 5.04,1.889 7.56,2.86 16.23,6.23 32.62,13.04 49.09,20.41 0.12,0.05 0.25,0.1 0.36,0.15 4.26,1.91 8.49,3.84 12.69,5.8 14.17,6.58 27.97,13.41 41.35,20.43 20.28,10.64 39.6,21.72 57.81,33.08 9.99,6.22 19.64,12.54 28.91,18.92 20.97,14.4 40.11,29.12 57.11,43.85 6.13,5.31 11.97,10.61 17.53,15.91 19.5,18.6 35.42,37.06 47.17,54.8 21.87,33.04 29.29,63.55 18.44,87.77 -28.65,64.03 -175.11,62.27 -340.46,0.37 -16.52,-6.18 -33.22,-12.97 -50.02,-20.35 l -8.94,-0.01 c 0.38,0.18 0.76,0.35 1.14,0.52 15.91,7.13 31.76,13.74 47.49,19.84 182.99,71.07 348.11,73.02 380.61,0.42 C 64.4,98.51 45.03,50.3 0,0"
             style="fill:#66fcf1;fill-opacity:1;fill-rule:nonzero;stroke:none"
             id="path946" />
        </g>
        <g
           id="g948"
           transform="translate(527.2197,790.2275)">
          <path
             d="M 0,0 C 8.738,18.568 0.769,40.704 -17.799,49.442 -36.367,58.181 -58.503,50.211 -67.241,31.644 -75.979,13.075 -68.01,-9.061 -49.442,-17.799 -30.874,-26.537 -8.738,-18.568 0,0"
             style="fill:#66fcf1;fill-opacity:1;fill-rule:nonzero;stroke:none"
             id="path950" />
        </g>
      </g>
    </g>
  </g>
</svg>
